[Header]
FileType HTR
DataType HTRS
FileVersion 1
NumSegments 22
NumFrames 4
DataFrameRate 24
EulerRotationOrder ZYX
CalibrationUnits mm
RotationUnits Degrees
GlobalAxisofGravity Y
BoneLengthAxis Y
ScaleFactor 1.0
[SegmentNames&Hierarchy]
reference	GLOBAL
Hips	reference
Spine	Hips
Spine1	Spine
Neck	Spine1
Head	Neck
LeftShoulder	Spine1
LeftArm	LeftShoulder
LeftForeArm	LeftArm
LeftHand	LeftForeArm
RightShoulder	Spine1
RightArm	RightShoulder
RightForeArm	RightArm
RightHand	RightForeArm
LeftUpLeg	Hips
LeftLeg	LeftUpLeg
LeftFoot	LeftLeg
LeftToeBase	LeftFoot
RightUpLeg	Hips
RightLeg	RightUpLeg
RightFoot	RightLeg
RightToeBase	RightFoot
[BasePosition]
reference	0	0	0	0	0	0	1
Hips	0	0	0	0	0	0	1
Spine	0	0	0	0	-0	90	1
Spine1	0	0	0	0	0	0	1
Neck	0	0	0	-7.352430803	-7.352430803	90	1
Head	0	0	0	0	-0	90	1
LeftShoulder	0	0	0	0	0	0	1
LeftArm	0	0	0	0	0	0	1
LeftForeArm	0	0	0	0	0	0	1
LeftHand	0	0	0	0	0	0	1
RightShoulder	0	0	0	0	-0	180	1
RightArm	0	0	0	0	-0	180	1
RightForeArm	0	0	0	0	-0	180	1
RightHand	0	0	0	0	-0	180	1
LeftUpLeg	0	0	0	0	-0	-90	1
LeftLeg	0	0	0	0	-0	-90	1
LeftFoot	0	0	0	66.57150701	-66.57150701	-90	1
LeftToeBase	0	0	0	0	-90	0	1
RightUpLeg	0	0	0	0	-0	-90	1
RightLeg	0	0	0	0	-0	-90	1
RightFoot	0	0	0	66.57150701	-66.57150701	-90	1
RightToeBase	0	0	0	0	-90	0	1
[reference]
55	0	0	0	0	-0	0	1.0
56	0	0	0	0	-0	0	1.0
57	0	0	0	0	-0	0	1.0
58	0	0	0	0	-0	0	1.0
[Hips]
55	-0.9653345346	8.678389549	0.3873752952	-17.347229	-98.92777252	19.16497803	1.0
56	-1.000665188	8.678389549	0.3726700544	-15.89477253	-98.80821228	19.12817383	1.0
57	-1.035547256	8.678389549	0.3595024049	-18.15226555	-98.87194824	21.09010124	1.0
58	-1.041170001	8.678389549	0.3464486599	-15.92748737	-99.28775024	18.35399628	1.0
[Spine]
55	0	0.7478299737	0	-10.46153355	1.529699564	-89.90567017	1.0
56	0	0.7478299737	0	-12.86180305	1.460490584	-89.39125061	1.0
57	0	0.7478299737	0	-13.18215942	1.137357831	-88.64050293	1.0
58	0	0.7478299737	0	-12.88243484	1.187959671	-88.82178497	1.0
[Spine1]
55	0	2.049309969	0	6.845696449	0.6288410425	-1.953438044	1.0
56	0	2.049309969	0	8.981321335	0.6471521258	-2.40093708	1.0
57	0	2.049309969	0	9.489100456	0.5225860476	-2.37874341	1.0
58	0	2.049309969	0	9.152527809	0.5142953396	-2.00258255	1.0
[Neck]
55	0	2.231709957	0	3.11686492	8.51123333	-83.77099609	1.0
56	0	2.231709957	0	1.94252944	8.62348938	-83.87815094	1.0
57	0	2.231709957	0	2.380227089	8.811719894	-84.3757782	1.0
58	0	2.231709957	0	3.661322355	8.867843628	-84.6006012	1.0
[Head]
55	0	1.413589954	0.1823999882	-5.778497696	2.120927095	-94.70252228	1.0
56	0	1.413589954	0.1823999882	-5.132655144	2.225337029	-95.08242798	1.0
57	0	1.413589954	0.1823999882	-5.385281086	2.364058495	-94.83763885	1.0
58	0	1.413589954	0.1823999882	-6.183168888	2.427455902	-94.8998642	1.0
[LeftShoulder]
55	0.3649300039	1.825889945	-0.04271000251	-10.18275833	-4.047660828	6.75599432	1.0
56	0.3649300039	1.825889945	-0.04271000251	-9.768279076	-4.242628574	6.450103283	1.0
57	0.3649300039	1.825889945	-0.04271000251	-9.120693207	-4.070331097	5.943454742	1.0
58	0.3649300039	1.825889945	-0.04271000251	-8.643573761	-4.25792551	5.430632591	1.0
[LeftArm]
55	1.24003005	0	0	22.98898506	4.89053297	-70.10520935	1.0
56	1.24003005	0	0	21.64180946	6.396756172	-71.79979706	1.0
57	1.24003005	0	0	21.87935638	7.170948505	-74.01004028	1.0
58	1.24003005	0	0	22.22707748	7.855013847	-76.22793579	1.0
[LeftForeArm]
55	2.847419977	0	0	-39.23016357	-64.16339874	39.93471909	1.0
56	2.847419977	0	0	-21.63031197	-57.11743164	21.72698212	1.0
57	2.847419977	0	0	-13.32628536	-46.96060181	11.42053986	1.0
58	2.847419977	0	0	-10.78034496	-36.33996201	5.762261391	1.0
[LeftHand]
55	2.258270025	0	0	-14.22312546	-11.15060043	6.672919273	1.0
56	2.258270025	0	0	-10.53004074	-11.89661598	7.89867878	1.0
57	2.258270025	0	0	-9.153272629	-12.00254822	7.599184513	1.0
58	2.258270025	0	0	-9.273206711	-10.67811966	4.142222881	1.0
[RightShoulder]
55	-0.3646599948	1.825889945	-0.04271000251	-9.246472359	6.167573452	176.6981354	1.0
56	-0.3646599948	1.825889945	-0.04271000251	-8.864730835	5.51492691	176.6682281	1.0
57	-0.3646599948	1.825889945	-0.04271000251	-8.421653748	5.563389301	176.8011322	1.0
58	-0.3646599948	1.825889945	-0.04271000251	-7.816262722	5.72628212	176.6998444	1.0
[RightArm]
55	-1.24003005	0	0	24.14963913	-0.6033350229	-107.7948608	1.0
56	-1.24003005	0	0	22.38712502	-2.624376297	-106.5085297	1.0
57	-1.24003005	0	0	20.72852135	-4.134206772	-106.2088623	1.0
58	-1.24003005	0	0	19.22361565	-5.09366703	-105.6864548	1.0
[RightForeArm]
55	-2.847419977	0	0	-29.96806908	60.26790619	132.4071503	1.0
56	-2.847419977	0	0	-14.4857645	58.59486389	152.5925293	1.0
57	-2.847419977	0	0	-1.700009465	52.14458466	169.7428894	1.0
58	-2.847419977	0	0	6.706604958	42.84980011	180.7360229	1.0
[RightHand]
55	-2.258270025	0	0	-2.619385481	13.60704708	168.6468353	1.0
56	-2.258270025	0	0	-0.2126917839	14.1370306	169.5781708	1.0
57	-2.258270025	0	0	2.031835318	13.91539955	169.4181061	1.0
58	-2.258270025	0	0	5.244513988	13.35536957	170.1990204	1.0
[LeftUpLeg]
55	0.9119900465	0	0	5.647672176	7.838643074	91.02867889	1.0
56	0.9119900465	0	0	3.943749905	5.168377876	90.78268433	1.0
57	0.9119900465	0	0	4.070082664	6.578326702	91.36530304	1.0
58	0.9119900465	0	0	5.111158371	8.446500778	91.31179047	1.0
[LeftLeg]
55	0	-4.371409893	0	-0.3217362165	-3.38846159	87.43932343	1.0
56	0	-4.371409893	0	0.7756171227	-2.965913773	87.09822083	1.0
57	0	-4.371409893	0	1.963786602	-5.473817348	86.87085724	1.0
58	0	-4.371409893	0	1.501260996	-6.018772602	87.05126953	1.0
[LeftFoot]
55	0	-3.918009996	0	-119.2903137	112.2009583	-68.29457092	1.0
56	0	-3.918009996	0	-114.5291748	112.2327728	-62.48327255	1.0
57	0	-3.918009996	0	-112.4829941	111.7743149	-60.46600342	1.0
58	0	-3.918009996	0	-114.4171066	111.2919464	-63.21958923	1.0
[LeftToeBase]
55	0	-0.5927900076	1.367989898	0	0	0	1.0
56	0	-0.5927900076	1.367989898	0	0	0	1.0
57	0	-0.5927900076	1.367989898	0	0	0	1.0
58	0	-0.5927900076	1.367989898	0	0	0	1.0
[RightUpLeg]
55	-0.9119900465	0	0	3.234295368	-12.07007504	93.58500671	1.0
56	-0.9119900465	0	0	2.282412052	-9.073375702	93.48403931	1.0
57	-0.9119900465	0	0	3.286518812	-11.12963963	93.13174438	1.0
58	-0.9119900465	0	0	4.572469234	-10.86979103	92.36192322	1.0
[RightLeg]
55	0	-4.371409893	0	0.7132610083	-4.962114811	88.12971497	1.0
56	0	-4.371409893	0	0.5977198482	-5.584678173	89.04728699	1.0
57	0	-4.371409893	0	-0.05485439301	-4.918218136	89.71639252	1.0
58	0	-4.371409893	0	-1.205455661	-5.002212048	90.57979584	1.0
[RightFoot]
55	0	-3.918009996	0	45.26142502	65.23665619	89.02598572	1.0
56	0	-3.918009996	0	40.31924438	64.78889465	83.79725647	1.0
57	0	-3.918009996	0	45.98374939	64.56655884	88.17482758	1.0
58	0	-3.918009996	0	46.90843201	64.68579102	88.46421051	1.0
[RightToeBase]
55	0	-0.5927900076	1.367989898	0	0	0	1.0
56	0	-0.5927900076	1.367989898	0	0	0	1.0
57	0	-0.5927900076	1.367989898	0	0	0	1.0
58	0	-0.5927900076	1.367989898	0	0	0	1.0
[EndOfFile]
